<?xml version="1.0" encoding="utf-8"?>
<!-- Generator: Adobe Illustrator 16.0.2, SVG Export Plug-In . SVG Version: 6.00 Build 0)  -->
<!DOCTYPE svg PUBLIC "-//W3C//DTD SVG 1.1//EN" "http://www.w3.org/Graphics/SVG/1.1/DTD/svg11.dtd">
<svg version="1.1" id="Слой_1" xmlns="http://www.w3.org/2000/svg" xmlns:xlink="http://www.w3.org/1999/xlink" x="0px" y="0px"
	 width="140.884px" height="141.648px" viewBox="0 0 140.884 141.648" enable-background="new 0 0 140.884 141.648"
	 xml:space="preserve">
<g>
	<path fill-rule="evenodd" clip-rule="evenodd" d="M129.602,88.52H70.727v-0.687c0-15.617-8.979-18.493-16.692-10.781L31.864,99.224
		c-4.59,4.59-4.59,12.102,0,16.691l22.171,22.171c6.878,6.879,16.692,3.992,16.692-10.405v-0.95h58.875
		c6.205,0,11.282-5.077,11.282-11.282V99.802C140.884,93.596,135.807,88.52,129.602,88.52L129.602,88.52z M129.602,94.189H70.727
		c-3.123,0-5.669-2.547-5.669-5.669v-0.687c0-5.196-0.776-13.01-7.014-6.772l-22.171,22.172c-2.377,2.378-2.377,6.296,0,8.674
		l22.171,22.171c5.378,5.378,7.014-1.784,7.014-6.396v-0.95c0-3.123,2.546-5.669,5.669-5.669h58.875
		c3.076,0,5.613-2.537,5.613-5.613V99.802C135.215,96.726,132.678,94.189,129.602,94.189L129.602,94.189z M82.84,8.123
		c-6.237-6.237-7.014,1.576-7.014,6.772v0.686c0,3.123-2.547,5.669-5.669,5.669H11.282c-3.076,0-5.613,2.537-5.613,5.613V42.51
		c0,3.076,2.537,5.613,5.613,5.613h58.875c3.122,0,5.669,2.547,5.669,5.669v0.951c0,4.611,1.636,11.774,7.014,6.396l22.172-22.171
		c2.377-2.377,2.377-6.296,0-8.673L82.84,8.123L82.84,8.123z M86.849,4.114l22.172,22.172c4.59,4.59,4.59,12.101,0,16.691
		L86.849,65.148c-6.878,6.877-16.691,3.991-16.691-10.405v-0.951H11.282C5.077,53.792,0,48.716,0,42.51V26.864
		c0-6.206,5.077-11.282,11.282-11.282h58.875v-0.686C70.157-0.722,79.136-3.598,86.849,4.114L86.849,4.114z"/>
</g>
</svg>
