<?xml version="1.0" encoding="utf-8"?>
<!-- Generator: Adobe Illustrator 16.0.2, SVG Export Plug-In . SVG Version: 6.00 Build 0)  -->
<!DOCTYPE svg PUBLIC "-//W3C//DTD SVG 1.1//EN" "http://www.w3.org/Graphics/SVG/1.1/DTD/svg11.dtd">
<svg version="1.1" id="Слой_1" xmlns="http://www.w3.org/2000/svg" xmlns:xlink="http://www.w3.org/1999/xlink" x="0px" y="0px"
	 width="58.35px" height="86.379px" viewBox="0 0 58.35 86.379" enable-background="new 0 0 58.35 86.379" xml:space="preserve">
<g>
	<path fill-rule="evenodd" clip-rule="evenodd" d="M8.504,0H20.3h29.545h3.799v0.902C56.43,2.304,58.35,5.19,58.35,8.504v55.219
		c0,4.406-3.115,7.195-7.609,8.877L24.634,84.914c-5.172,2.439-12.837,2.861-12.837-7.018V8.504c0-0.993,0.173-1.947,0.489-2.835
		H8.504c-1.548,0-2.835,1.287-2.835,2.835v46.682v-0.537v14.744c0,1.559-1.275,2.834-2.834,2.834l0,0
		C1.275,72.227,0,70.951,0,69.393V54.648v0.537V8.504C0,3.827,3.827,0,8.504,0L8.504,0z M50.193,67.137L50.193,67.137v-0.002
		l0.523-0.244c1.006-0.625,1.965-2.086,1.965-3.168V8.504c0-1.548-1.287-2.835-2.836-2.835H20.3c-1.547,0-2.834,1.288-2.834,2.835
		v69.393c0,4.123,3.54,2.594,5.785,1.822L50.193,67.137L50.193,67.137z"/>
	<path fill-rule="evenodd" clip-rule="evenodd" d="M21.585,41.102h8.749c1.561,0,2.836,1.276,2.836,2.834l0,0
		c0,1.56-1.275,2.835-2.836,2.835h-8.749c-1.559,0-2.835-1.275-2.835-2.835l0,0C18.75,42.378,20.026,41.102,21.585,41.102
		L21.585,41.102z"/>
</g>
</svg>
