<?xml version="1.0" encoding="utf-8"?>
<!-- Generator: Adobe Illustrator 16.0.2, SVG Export Plug-In . SVG Version: 6.00 Build 0)  -->
<!DOCTYPE svg PUBLIC "-//W3C//DTD SVG 1.1//EN" "http://www.w3.org/Graphics/SVG/1.1/DTD/svg11.dtd">
<svg version="1.1" id="Слой_1" xmlns="http://www.w3.org/2000/svg" xmlns:xlink="http://www.w3.org/1999/xlink" x="0px" y="0px"
	 width="141.732px" height="141.551px" viewBox="0 0 141.732 141.551" enable-background="new 0 0 141.732 141.551"
	 xml:space="preserve">
<g>
	<path fill-rule="evenodd" clip-rule="evenodd" d="M137.045,54.449l0.051,0.045l0.01,0.009l0,0c2.84,2.597,4.627,6.326,4.627,10.453
		v62.422c0,7.795-6.379,14.173-14.174,14.173H14.173C6.378,141.551,0,135.173,0,127.378V64.956c0-4.17,1.827-7.935,4.718-10.535
		l-0.093-0.043l56.367-50.69c5.481-4.93,14.49-4.922,19.988,0.051L137.045,54.449L137.045,54.449z M94.219,97.879l41.504-35.301
		c-0.432-1.476-1.256-2.808-2.383-3.838L77.176,7.943c-3.326-3.009-9.054-3.042-12.393-0.04L14.797,52.855l0.094,0.044l-6.383,5.739
		c-1.217,1.094-2.086,2.489-2.521,4.028l41.652,35.223l10.897-9.216c6.907-5.841,18.04-5.799,24.922,0.057L94.219,97.879
		L94.219,97.879z M136.063,69.731l-37.469,31.87l35.961,30.587c0.949-1.372,1.508-3.03,1.508-4.81V69.731L136.063,69.731z
		 M129.793,135.58l-37.391-31.802c-0.014-0.012-0.027-0.023-0.041-0.035L79.785,93.047c-4.773-4.061-12.802-4.093-17.588-0.046
		l-12.714,10.752c-0.009,0.008-0.018,0.016-0.027,0.023L11.87,135.561c0.733,0.209,1.506,0.321,2.303,0.321h113.385
		C128.332,135.882,129.08,135.777,129.793,135.58L129.793,135.58z M7.141,132.135l36.108-30.534L5.669,69.822v57.557
		C5.669,129.135,6.214,130.774,7.141,132.135L7.141,132.135z"/>
</g>
</svg>
