<?xml version="1.0" encoding="utf-8"?>
<!-- Generator: Adobe Illustrator 16.0.2, SVG Export Plug-In . SVG Version: 6.00 Build 0)  -->
<!DOCTYPE svg PUBLIC "-//W3C//DTD SVG 1.1//EN" "http://www.w3.org/Graphics/SVG/1.1/DTD/svg11.dtd">
<svg version="1.1" id="Слой_1" xmlns="http://www.w3.org/2000/svg" xmlns:xlink="http://www.w3.org/1999/xlink" x="0px" y="0px"
	 width="129.633px" height="141.53px" viewBox="0 0 129.633 141.53" enable-background="new 0 0 129.633 141.53"
	 xml:space="preserve">
<g>
	<path fill-rule="evenodd" clip-rule="evenodd" d="M14.173,0h72.94c7.795,0,14.174,6.378,14.174,14.173v99.01
		c0,7.796-6.379,14.174-14.174,14.174h-72.94C6.378,127.357,0,120.979,0,113.184v-99.01C0,6.378,6.378,0,14.173,0L14.173,0z
		 M14.173,5.669c-4.666,0-8.504,3.838-8.504,8.504v99.01c0,4.666,3.838,8.505,8.504,8.505h72.94c4.666,0,8.504-3.838,8.504-8.505
		v-99.01c0-4.666-3.838-8.504-8.504-8.504H14.173L14.173,5.669z"/>
	<path fill-rule="evenodd" clip-rule="evenodd" d="M97.029,14.173h18.432c7.795,0,14.172,6.378,14.172,14.173v99.011
		c0,7.795-6.377,14.173-14.172,14.173H42.52c-7.795,0-14.173-6.378-14.173-14.173v-4.069h5.669v4.069
		c0,4.666,3.838,8.504,8.504,8.504h72.941c4.666,0,8.504-3.838,8.504-8.504V28.347c0-4.666-3.84-8.504-8.504-8.504H97.029V14.173
		L97.029,14.173z"/>
	<path fill-rule="evenodd" clip-rule="evenodd" d="M20.853,26.929h59.581c1.559,0,2.834,1.275,2.834,2.834l0,0
		c0,1.559-1.275,2.835-2.834,2.835H20.853c-1.559,0-2.835-1.276-2.835-2.835l0,0C18.018,28.205,19.294,26.929,20.853,26.929
		L20.853,26.929z"/>
	<path fill-rule="evenodd" clip-rule="evenodd" d="M20.853,55.276h59.581c1.559,0,2.834,1.275,2.834,2.834l0,0
		c0,1.559-1.275,2.834-2.834,2.834H20.853c-1.559,0-2.835-1.275-2.835-2.834l0,0C18.018,56.551,19.294,55.276,20.853,55.276
		L20.853,55.276z"/>
	<path fill-rule="evenodd" clip-rule="evenodd" d="M20.853,83.622h31.234c1.56,0,2.835,1.275,2.835,2.835l0,0
		c0,1.559-1.276,2.834-2.835,2.834H20.853c-1.559,0-2.835-1.275-2.835-2.834l0,0C18.018,84.897,19.294,83.622,20.853,83.622
		L20.853,83.622z"/>
</g>
</svg>
