<?xml version="1.0" encoding="utf-8"?>
<!-- Generator: Adobe Illustrator 16.0.2, SVG Export Plug-In . SVG Version: 6.00 Build 0)  -->
<!DOCTYPE svg PUBLIC "-//W3C//DTD SVG 1.1//EN" "http://www.w3.org/Graphics/SVG/1.1/DTD/svg11.dtd">
<svg version="1.1" id="Слой_1" xmlns="http://www.w3.org/2000/svg" xmlns:xlink="http://www.w3.org/1999/xlink" x="0px" y="0px"
	 width="87.071px" height="93.1px" viewBox="0 0 87.071 93.1" enable-background="new 0 0 87.071 93.1" xml:space="preserve">
<g>
	<path fill-rule="evenodd" clip-rule="evenodd" d="M43.536,0c15.906,0,28.8,12.894,28.8,28.8s-12.895,28.8-28.8,28.8
		s-28.8-12.894-28.8-28.8C14.735,12.894,27.63,0,43.536,0L43.536,0z M65.197,20.675c-3.705,8.612-13.711,10.541-24.032,7.775
		c-4.086-1.095-9.833-1.932-13.664,0.374c-3.567,2.147-4.478,6.569-4.583,10.473c3.826,7.499,11.622,12.634,20.617,12.634
		c12.775,0,23.13-10.357,23.13-23.132C66.666,25.941,66.146,23.203,65.197,20.675L65.197,20.675z M20.425,27.867
		c4.294-6.207,12.53-7.486,22.207-4.893c4.415,1.183,10.609,1.812,14.555-1.028c2.711-1.951,3.653-5.12,3.822-8.302
		c-4.241-4.886-10.496-7.975-17.474-7.975C31.073,5.669,20.915,15.525,20.425,27.867L20.425,27.867z"/>
	<path fill-rule="evenodd" clip-rule="evenodd" d="M81.639,91.396c-6.597-15.143-21.537-24.969-38.103-24.969
		S12.029,76.254,5.433,91.396c-0.624,1.432-2.299,2.092-3.731,1.467c-1.431-0.623-2.09-2.299-1.467-3.73
		c7.496-17.207,24.476-28.375,43.3-28.375s35.805,11.168,43.3,28.375c0.624,1.432-0.035,3.107-1.467,3.73
		C83.938,93.488,82.262,92.828,81.639,91.396L81.639,91.396z"/>
</g>
</svg>
