<?xml version="1.0" encoding="utf-8"?>
<!-- Generator: Adobe Illustrator 16.0.2, SVG Export Plug-In . SVG Version: 6.00 Build 0)  -->
<!DOCTYPE svg PUBLIC "-//W3C//DTD SVG 1.1//EN" "http://www.w3.org/Graphics/SVG/1.1/DTD/svg11.dtd">
<svg version="1.1" id="Слой_1" xmlns="http://www.w3.org/2000/svg" xmlns:xlink="http://www.w3.org/1999/xlink" x="0px" y="0px"
	 width="160.132px" height="141.631px" viewBox="0 0 160.132 141.631" enable-background="new 0 0 160.132 141.631"
	 xml:space="preserve">
<g>
	<path fill-rule="evenodd" clip-rule="evenodd" d="M50.004,0h60.123c7.796,0,14.174,6.378,14.174,14.173v113.284
		c0,7.795-6.379,14.174-14.174,14.174H50.004c-7.794,0-14.173-6.377-14.173-14.174V14.173C35.832,6.378,42.209,0,50.004,0L50.004,0z
		 M50.004,5.669c-4.666,0-8.504,3.838-8.504,8.504v113.284c0,4.666,3.838,8.504,8.504,8.504h60.123c4.667,0,8.505-3.838,8.505-8.504
		V14.173c0-4.667-3.839-8.504-8.505-8.504H50.004L50.004,5.669z"/>
	<path fill-rule="evenodd" clip-rule="evenodd" d="M80.066,136.012c-7.224,0-13.08-5.855-13.08-13.08
		c0-7.223,5.856-13.078,13.08-13.078c7.224,0,13.08,5.855,13.08,13.078C93.146,130.156,87.29,136.012,80.066,136.012L80.066,136.012
		z M80.066,115.521c4.092,0,7.411,3.318,7.411,7.41c0,4.094-3.318,7.412-7.411,7.412c-4.093,0-7.41-3.318-7.41-7.412
		C72.656,118.84,75.973,115.521,80.066,115.521L80.066,115.521z"/>
	<path fill-rule="evenodd" clip-rule="evenodd" d="M55.713,11.112h48.058c6.485,0,11.79,5.308,11.79,11.791v75.265
		c0,6.482-5.307,11.791-11.79,11.791H80.044H55.713c-6.483,0-11.79-5.307-11.79-11.791V22.903
		C43.923,16.418,49.229,11.112,55.713,11.112L55.713,11.112z M55.713,16.782c-3.355,0-6.121,2.767-6.121,6.121v75.265
		c0,3.354,2.766,6.121,6.121,6.121h48.058c3.355,0,6.121-2.766,6.121-6.121V22.903c0-3.356-2.768-6.121-6.121-6.121H55.713
		L55.713,16.782z"/>
	<path fill-rule="evenodd" clip-rule="evenodd" d="M139.507,39.562c3.956,9.47,5.925,19.65,5.925,29.908
		c0,10.985-2.258,21.875-6.787,31.891c-0.643,1.424-2.328,2.059-3.751,1.416c-1.422-0.645-2.058-2.328-1.415-3.752
		c4.197-9.281,6.284-19.375,6.284-29.555c0-9.508-1.82-18.945-5.487-27.723c-0.602-1.441,0.083-3.106,1.523-3.708
		C137.239,37.437,138.905,38.121,139.507,39.562L139.507,39.562z M20.625,39.562c-3.956,9.47-5.925,19.65-5.925,29.908
		c0,10.985,2.258,21.875,6.787,31.891c0.643,1.424,2.329,2.059,3.751,1.416c1.423-0.645,2.058-2.328,1.415-3.752
		c-4.197-9.281-6.284-19.375-6.284-29.555c0-9.508,1.82-18.945,5.487-27.723c0.602-1.441-0.082-3.106-1.523-3.708
		C22.893,37.437,21.227,38.121,20.625,39.562L20.625,39.562z M9.127,28.568C3.036,41.334,0,55.337,0,69.47
		c0,15.178,3.503,30.198,10.511,43.68c0.721,1.385,2.438,1.928,3.823,1.207c1.385-0.721,1.928-2.438,1.208-3.822
		C8.954,97.861,5.669,83.738,5.669,69.47c0-13.288,2.848-26.458,8.575-38.461c0.672-1.409,0.071-3.106-1.338-3.779
		C11.498,26.558,9.8,27.159,9.127,28.568L9.127,28.568z M151.004,28.568c6.092,12.766,9.128,26.77,9.128,40.902
		c0,15.178-3.504,30.198-10.512,43.68c-0.72,1.385-2.438,1.928-3.822,1.207c-1.386-0.721-1.928-2.438-1.208-3.822
		c6.588-12.674,9.873-26.797,9.873-41.065c0-13.288-2.848-26.458-8.575-38.461c-0.673-1.409-0.071-3.106,1.338-3.779
		S150.332,27.159,151.004,28.568L151.004,28.568z"/>
</g>
</svg>
