<?xml version="1.0" encoding="utf-8"?>
<!-- Generator: Adobe Illustrator 16.0.2, SVG Export Plug-In . SVG Version: 6.00 Build 0)  -->
<!DOCTYPE svg PUBLIC "-//W3C//DTD SVG 1.1//EN" "http://www.w3.org/Graphics/SVG/1.1/DTD/svg11.dtd">
<svg version="1.1" id="Слой_1" xmlns="http://www.w3.org/2000/svg" xmlns:xlink="http://www.w3.org/1999/xlink" x="0px" y="0px"
	 width="141.732px" height="141.732px" viewBox="0 0 141.732 141.732" enable-background="new 0 0 141.732 141.732"
	 xml:space="preserve">
<g>
	<path fill-rule="evenodd" clip-rule="evenodd" d="M70.866,68.088c15.608,0,28.261,12.652,28.261,28.259s-12.652,28.26-28.261,28.26
		c-15.607,0-28.26-12.652-28.26-28.26S55.259,68.088,70.866,68.088L70.866,68.088z M70.866,73.758
		c12.478,0,22.591,10.113,22.591,22.59s-10.113,22.592-22.591,22.592c-12.477,0-22.591-10.115-22.591-22.592
		S58.39,73.758,70.866,73.758L70.866,73.758z"/>
	<path fill-rule="evenodd" clip-rule="evenodd" d="M127.559,141.732H14.173C6.378,141.732,0,135.355,0,127.559V65.137
		c0-7.795,6.378-14.173,14.173-14.173h113.385c7.795,0,14.174,6.378,14.174,14.173v62.421
		C141.732,135.355,135.354,141.732,127.559,141.732L127.559,141.732z M14.173,56.633h113.385c4.678,0,8.504,3.827,8.504,8.504
		v62.421c0,4.678-3.826,8.504-8.504,8.504H14.173c-4.677,0-8.504-3.826-8.504-8.504V65.137C5.669,60.46,9.496,56.633,14.173,56.633
		L14.173,56.633z"/>
	<path fill-rule="evenodd" clip-rule="evenodd" d="M14.173,0h42.454C64.422,0,70.8,6.379,70.8,14.173v11.199
		c0,7.795-6.378,14.173-14.173,14.173H14.173C6.379,39.546,0,33.168,0,25.373V14.173C0,6.378,6.378,0,14.173,0L14.173,0z
		 M14.173,5.669h42.454c4.677,0,8.504,3.828,8.504,8.504v11.199c0,4.677-3.828,8.504-8.504,8.504H14.173
		c-4.677,0-8.504-3.827-8.504-8.504V14.173C5.669,9.496,9.496,5.669,14.173,5.669L14.173,5.669z"/>
</g>
</svg>
