<?xml version="1.0" encoding="utf-8"?>
<!-- Generator: Adobe Illustrator 16.0.2, SVG Export Plug-In . SVG Version: 6.00 Build 0)  -->
<!DOCTYPE svg PUBLIC "-//W3C//DTD SVG 1.1//EN" "http://www.w3.org/Graphics/SVG/1.1/DTD/svg11.dtd">
<svg version="1.1" id="Слой_1" xmlns="http://www.w3.org/2000/svg" xmlns:xlink="http://www.w3.org/1999/xlink" x="0px" y="0px"
	 width="140.408px" height="133.997px" viewBox="0 0 140.408 133.997" enable-background="new 0 0 140.408 133.997"
	 xml:space="preserve">
<g>
	<path fill-rule="evenodd" clip-rule="evenodd" d="M126.672,48.681H13.71c-14.491,0-15.116,10.384-12.523,20.809l12.523,50.334
		c1.882,7.563,6.378,14.173,14.173,14.173h84.615c7.797,0,12.293-6.608,14.174-14.173l12.682-50.976
		C141.939,58.458,140.504,48.681,126.672,48.681L126.672,48.681z M126.672,54.351H13.71c-2.203,0-5.754,0.258-7.099,2.364
		c-1.76,2.756-0.653,8.468,0.077,11.407l12.523,50.334c1.062,4.269,3.499,9.873,8.671,9.873h84.615c5.174,0,7.609-5.604,8.672-9.873
		l12.684-50.976c0.709-2.854,1.631-8.087-0.119-10.744C132.35,54.634,128.914,54.351,126.672,54.351L126.672,54.351z"/>
	<path fill-rule="evenodd" clip-rule="evenodd" d="M35.419,66.289L35.419,66.289c1.65,0,3,1.35,3,3v44.101c0,1.65-1.35,3-3,3l0,0
		c-1.65,0-3-1.35-3-3V69.289C32.419,67.639,33.77,66.289,35.419,66.289L35.419,66.289z"/>
	<path fill-rule="evenodd" clip-rule="evenodd" d="M70.204,66.289L70.204,66.289c1.649,0,2.999,1.35,2.999,3v44.101
		c0,1.65-1.35,3-2.999,3l0,0c-1.65,0-3-1.35-3-3V69.289C67.204,67.639,68.554,66.289,70.204,66.289L70.204,66.289z"/>
	<path fill-rule="evenodd" clip-rule="evenodd" d="M86.943,0.399L86.943,0.399c-1.43,0.825-1.924,2.669-1.1,4.098l26.607,46.085
		c0.826,1.429,2.67,1.923,4.1,1.098l0,0c1.428-0.825,1.922-2.669,1.098-4.098L91.041,1.498C90.215,0.068,88.371-0.425,86.943,0.399
		L86.943,0.399z"/>
	<path fill-rule="evenodd" clip-rule="evenodd" d="M105.123,66.289L105.123,66.289c1.648,0,3,1.35,3,3v44.101c0,1.65-1.352,3-3,3
		l0,0c-1.65,0-3-1.35-3-3V69.289C102.123,67.639,103.473,66.289,105.123,66.289L105.123,66.289z"/>
	<path fill-rule="evenodd" clip-rule="evenodd" d="M53.453,0.399L53.453,0.399c1.429,0.825,1.923,2.669,1.098,4.098L27.943,50.583
		c-0.825,1.429-2.669,1.923-4.098,1.098l0,0c-1.429-0.825-1.923-2.669-1.098-4.098L49.355,1.498
		C50.18,0.068,52.023-0.425,53.453,0.399L53.453,0.399z"/>
</g>
</svg>
